<svg xmlns="http://www.w3.org/2000/svg" width="800" height="400"><rect width="800" height="400" x="0" y="0" fill="#FFFFFF" id="background"/><g id="viz"><clipPath id="serieClipPath"><rect x="-60" y="-10" width="600" height="400"/></clipPath><g transform="translate(0,0)"><g transform="translate(60,10)" clip-path="url(#serieClipPath)"><g id="axis"><g transform="translate(0,370)" fill="none" font-size="10" font-family="sans-serif" text-anchor="middle"><path class="domain" stroke="currentColor" d="M0.5,6V0.5H525.5V6"/><g class="tick" opacity="1" transform="translate(0.5,0)"><line stroke="currentColor" y2="6"/><text fill="currentColor" y="9" dy="0.71em">2015</text></g><g class="tick" opacity="1" transform="translate(105.44249726177438,0)"><line stroke="currentColor" y2="6"/><text fill="currentColor" y="9" dy="0.71em">2016</text></g><g class="tick" opacity="1" transform="translate(210.67250821467687,0)"><line stroke="currentColor" y2="6"/><text fill="currentColor" y="9" dy="0.71em">2017</text></g><g class="tick" opacity="1" transform="translate(315.61500547645124,0)"><line stroke="currentColor" y2="6"/><text fill="currentColor" y="9" dy="0.71em">2018</text></g><g class="tick" opacity="1" transform="translate(420.55750273822565,0)"><line stroke="currentColor" y2="6"/><text fill="currentColor" y="9" dy="0.71em">2019</text></g><g class="tick" opacity="1" transform="translate(525.5,0)"><line stroke="currentColor" y2="6"/><text fill="currentColor" y="9" dy="0.71em">2020</text></g><text x="525" dy="-5" text-anchor="end" style="font-family: Arial, sans-serif; font-size: 12px; fill: rgb(123, 123, 123); font-weight: bold;">Année</text></g><g transform="translate(0,0)" fill="none" font-size="10" font-family="sans-serif" text-anchor="end"><path class="domain" stroke="currentColor" d="M0.5,370.5V0.5"/><g class="tick" opacity="1" transform="translate(0,370.5)"><line stroke="currentColor" x2="-6"/><text fill="currentColor" x="-9" dy="0.32em">8,000,000</text></g><g class="tick" opacity="1" transform="translate(0,329.38888888888886)"><line stroke="currentColor" x2="-6"/><text fill="currentColor" x="-9" dy="0.32em">8,200,000</text></g><g class="tick" opacity="1" transform="translate(0,288.27777777777777)"><line stroke="currentColor" x2="-6"/><text fill="currentColor" x="-9" dy="0.32em">8,400,000</text></g><g class="tick" opacity="1" transform="translate(0,247.16666666666669)"><line stroke="currentColor" x2="-6"/><text fill="currentColor" x="-9" dy="0.32em">8,600,000</text></g><g class="tick" opacity="1" transform="translate(0,206.05555555555557)"><line stroke="currentColor" x2="-6"/><text fill="currentColor" x="-9" dy="0.32em">8,800,000</text></g><g class="tick" opacity="1" transform="translate(0,164.94444444444443)"><line stroke="currentColor" x2="-6"/><text fill="currentColor" x="-9" dy="0.32em">9,000,000</text></g><g class="tick" opacity="1" transform="translate(0,123.83333333333334)"><line stroke="currentColor" x2="-6"/><text fill="currentColor" x="-9" dy="0.32em">9,200,000</text></g><g class="tick" opacity="1" transform="translate(0,82.72222222222221)"><line stroke="currentColor" x2="-6"/><text fill="currentColor" x="-9" dy="0.32em">9,400,000</text></g><g class="tick" opacity="1" transform="translate(0,41.61111111111113)"><line stroke="currentColor" x2="-6"/><text fill="currentColor" x="-9" dy="0.32em">9,600,000</text></g><g class="tick" opacity="1" transform="translate(0,0.5)"><line stroke="currentColor" x2="-6"/><text fill="currentColor" x="-9" dy="0.32em">9,800,000</text></g><text x="4" text-anchor="start" dominant-baseline="hanging" style="font-family: Arial, sans-serif; font-size: 12px; fill: rgb(123, 123, 123); font-weight: bold;">Salaire brut annuel estimé</text></g></g><g id="viz"><g><path d="M0,333.9661111111111C52.47124863088719,333.9661111111111,52.47124863088719,251.7438888888889,104.94249726177438,251.7438888888889C157.55750273822562,251.7438888888889,157.55750273822562,237.95111111111115,210.17250821467687,237.95111111111115C262.64375684556404,237.95111111111115,262.64375684556404,208.88555555555553,315.11500547645124,208.88555555555553C367.58625410733845,208.88555555555553,367.58625410733845,129.8288888888889,420.05750273822565,129.8288888888889C472.5287513691128,129.8288888888889,472.5287513691128,18.582222222222203,525,18.582222222222203" stroke="#1f77b4" fill="none"/><text font-family="sans-serif" font-size="10" class="labels" x="525" y="18.582222222222203" dx="0" dy="-4" text-anchor="middle"/></g></g></g><text y="4" x="4" style="font-family: Arial, sans-serif; font-size: 12px; fill: black; font-weight: bold; dominant-baseline: hanging;"/></g><g id="grid"><rect x="0" y="0" width="600" height="400" fill="none" stroke="#ccc"/></g></g><g id="legend" transform="translate(600,10)"><g transform="translate(5,0)"/></g></svg>