<svg xmlns="http://www.w3.org/2000/svg" width="900" height="450"><rect width="900" height="450" x="0" y="0" fill="#FFFFFF" id="background"/><g id="viz"><clipPath id="serieClipPath"><rect x="-60" y="-10" width="700" height="450"/></clipPath><g transform="translate(0,0)"><g transform="translate(60,10)" clip-path="url(#serieClipPath)"><g id="axis"><g transform="translate(0,420)" fill="none" font-size="10" font-family="sans-serif" text-anchor="middle"><path class="domain" stroke="currentColor" d="M0.5,6V0.5H545.5V6"/><g class="tick" opacity="1" transform="translate(0.5,0)"><line stroke="currentColor" y2="6"/><text fill="currentColor" y="9" dy="0.71em">2015</text></g><g class="tick" opacity="1" transform="translate(109.44030668127054,0)"><line stroke="currentColor" y2="6"/><text fill="currentColor" y="9" dy="0.71em">2016</text></g><g class="tick" opacity="1" transform="translate(218.6790799561884,0)"><line stroke="currentColor" y2="6"/><text fill="currentColor" y="9" dy="0.71em">2017</text></g><g class="tick" opacity="1" transform="translate(327.61938663745894,0)"><line stroke="currentColor" y2="6"/><text fill="currentColor" y="9" dy="0.71em">2018</text></g><g class="tick" opacity="1" transform="translate(436.5596933187295,0)"><line stroke="currentColor" y2="6"/><text fill="currentColor" y="9" dy="0.71em">2019</text></g><g class="tick" opacity="1" transform="translate(545.5,0)"><line stroke="currentColor" y2="6"/><text fill="currentColor" y="9" dy="0.71em">2020</text></g><text x="545" dy="-5" text-anchor="end" style="font-family: Arial, sans-serif; font-size: 12px; fill: rgb(123, 123, 123); font-weight: bold;">Année</text></g><g transform="translate(0,0)" fill="none" font-size="10" font-family="sans-serif" text-anchor="end"><path class="domain" stroke="currentColor" d="M0.5,420.5V0.5"/><g class="tick" opacity="1" transform="translate(0,420.5)"><line stroke="currentColor" x2="-6"/><text fill="currentColor" x="-9" dy="0.32em">2,300,000</text></g><g class="tick" opacity="1" transform="translate(0,388.19230769230774)"><line stroke="currentColor" x2="-6"/><text fill="currentColor" x="-9" dy="0.32em">2,400,000</text></g><g class="tick" opacity="1" transform="translate(0,355.88461538461536)"><line stroke="currentColor" x2="-6"/><text fill="currentColor" x="-9" dy="0.32em">2,500,000</text></g><g class="tick" opacity="1" transform="translate(0,323.57692307692304)"><line stroke="currentColor" x2="-6"/><text fill="currentColor" x="-9" dy="0.32em">2,600,000</text></g><g class="tick" opacity="1" transform="translate(0,291.2692307692308)"><line stroke="currentColor" x2="-6"/><text fill="currentColor" x="-9" dy="0.32em">2,700,000</text></g><g class="tick" opacity="1" transform="translate(0,258.96153846153845)"><line stroke="currentColor" x2="-6"/><text fill="currentColor" x="-9" dy="0.32em">2,800,000</text></g><g class="tick" opacity="1" transform="translate(0,226.65384615384613)"><line stroke="currentColor" x2="-6"/><text fill="currentColor" x="-9" dy="0.32em">2,900,000</text></g><g class="tick" opacity="1" transform="translate(0,194.34615384615387)"><line stroke="currentColor" x2="-6"/><text fill="currentColor" x="-9" dy="0.32em">3,000,000</text></g><g class="tick" opacity="1" transform="translate(0,162.03846153846152)"><line stroke="currentColor" x2="-6"/><text fill="currentColor" x="-9" dy="0.32em">3,100,000</text></g><g class="tick" opacity="1" transform="translate(0,129.73076923076923)"><line stroke="currentColor" x2="-6"/><text fill="currentColor" x="-9" dy="0.32em">3,200,000</text></g><g class="tick" opacity="1" transform="translate(0,97.4230769230769)"><line stroke="currentColor" x2="-6"/><text fill="currentColor" x="-9" dy="0.32em">3,300,000</text></g><g class="tick" opacity="1" transform="translate(0,65.11538461538461)"><line stroke="currentColor" x2="-6"/><text fill="currentColor" x="-9" dy="0.32em">3,400,000</text></g><g class="tick" opacity="1" transform="translate(0,32.807692307692285)"><line stroke="currentColor" x2="-6"/><text fill="currentColor" x="-9" dy="0.32em">3,500,000</text></g><g class="tick" opacity="1" transform="translate(0,0.5)"><line stroke="currentColor" x2="-6"/><text fill="currentColor" x="-9" dy="0.32em">3,600,000</text></g><text x="4" text-anchor="start" dominant-baseline="hanging" style="font-family: Arial, sans-serif; font-size: 12px; fill: rgb(123, 123, 123); font-weight: bold;">Salaire brut annuel estimé</text></g></g><g id="viz"><g id="femmes"><path d="M0,352.7676923076923C54.47015334063527,352.7676923076923,54.47015334063527,335.83846153846156,108.94030668127054,335.83846153846156C163.55969331872947,335.83846153846156,163.55969331872947,327.6,218.1790799561884,327.6C272.6492332968237,327.6,272.6492332968237,259.39846153846156,327.11938663745894,259.39846153846156C381.5895399780942,259.39846153846156,381.5895399780942,193.26461538461538,436.0596933187295,193.26461538461538C490.52984665936475,193.26461538461538,490.52984665936475,162.6369230769231,545,162.6369230769231" stroke="#1f77b4" fill="none"/><g><circle class="dot" cx="0" cy="352.7676923076923" r="1" fill="#1f77b4"/><circle class="dot" cx="108.94030668127054" cy="335.83846153846156" r="1" fill="#1f77b4"/><circle class="dot" cx="218.1790799561884" cy="327.6" r="1" fill="#1f77b4"/><circle class="dot" cx="327.11938663745894" cy="259.39846153846156" r="1" fill="#1f77b4"/><circle class="dot" cx="436.0596933187295" cy="193.26461538461538" r="1" fill="#1f77b4"/><circle class="dot" cx="545" cy="162.6369230769231" r="1" fill="#1f77b4"/></g><text font-family="sans-serif" font-size="10" class="labels" x="545" y="162.6369230769231" dx="5" dy="4" text-anchor="start">femmes</text></g><g id="femmes et hommes"><path d="M0,83.35384615384615C54.47015334063527,83.35384615384615,54.47015334063527,31.59692307692307,108.94030668127054,31.59692307692307C163.55969331872947,31.59692307692307,163.55969331872947,25.97538461538463,218.1790799561884,25.97538461538463C272.6492332968237,25.97538461538463,272.6492332968237,133.30153846153846,327.11938663745894,133.30153846153846C381.5895399780942,133.30153846153846,381.5895399780942,96.21230769230769,436.0596933187295,96.21230769230769C490.52984665936475,96.21230769230769,490.52984665936475,58.800000000000004,545,58.800000000000004" stroke="#1f77b4" fill="none"/><g><circle class="dot" cx="0" cy="83.35384615384615" r="1" fill="#1f77b4"/><circle class="dot" cx="108.94030668127054" cy="31.59692307692307" r="1" fill="#1f77b4"/><circle class="dot" cx="218.1790799561884" cy="25.97538461538463" r="1" fill="#1f77b4"/><circle class="dot" cx="327.11938663745894" cy="133.30153846153846" r="1" fill="#1f77b4"/><circle class="dot" cx="436.0596933187295" cy="96.21230769230769" r="1" fill="#1f77b4"/><circle class="dot" cx="545" cy="58.800000000000004" r="1" fill="#1f77b4"/></g><text font-family="sans-serif" font-size="10" class="labels" x="545" y="58.800000000000004" dx="5" dy="4" text-anchor="start">femmes et hommes</text></g><g id="hommes"><path d="M0,411.85846153846154C54.47015334063527,411.85846153846154,54.47015334063527,351.31384615384616,108.94030668127054,351.31384615384616C163.55969331872947,351.31384615384616,163.55969331872947,343.49538461538464,218.1790799561884,343.49538461538464C272.6492332968237,343.49538461538464,272.6492332968237,258.6876923076923,327.11938663745894,258.6876923076923C381.5895399780942,258.6876923076923,381.5895399780942,237.65538461538463,436.0596933187295,237.65538461538463C490.52984665936475,237.65538461538463,490.52984665936475,130.84615384615384,545,130.84615384615384" stroke="#1f77b4" fill="none"/><g><circle class="dot" cx="0" cy="411.85846153846154" r="1" fill="#1f77b4"/><circle class="dot" cx="108.94030668127054" cy="351.31384615384616" r="1" fill="#1f77b4"/><circle class="dot" cx="218.1790799561884" cy="343.49538461538464" r="1" fill="#1f77b4"/><circle class="dot" cx="327.11938663745894" cy="258.6876923076923" r="1" fill="#1f77b4"/><circle class="dot" cx="436.0596933187295" cy="237.65538461538463" r="1" fill="#1f77b4"/><circle class="dot" cx="545" cy="130.84615384615384" r="1" fill="#1f77b4"/></g><text font-family="sans-serif" font-size="10" class="labels" x="545" y="130.84615384615384" dx="5" dy="4" text-anchor="start">hommes</text></g></g></g><text y="4" x="4" style="font-family: Arial, sans-serif; font-size: 12px; fill: black; font-weight: bold; dominant-baseline: hanging;"/></g><g id="grid"><rect x="0" y="0" width="700" height="450" fill="none" stroke="#ccc"/></g></g><g id="legend" transform="translate(700,10)"><g transform="translate(5,0)"/></g></svg>