<svg xmlns="http://www.w3.org/2000/svg" width="900" height="500"><rect width="900" height="500" x="0" y="0" fill="#FFFFFF" id="background"/><g id="viz"><clipPath id="serieClipPath"><rect x="-50" y="-13" width="700" height="500"/></clipPath><g transform="translate(0,0)"><g transform="translate(50,13)" clip-path="url(#serieClipPath)"><g id="axis"><g transform="translate(0,467)" fill="none" font-size="10" font-family="sans-serif" text-anchor="middle"><path class="domain" stroke="currentColor" d="M0.5,6V0.5H450.5V6"/><g class="tick" opacity="1" transform="translate(0.5,0)"><line stroke="currentColor" y2="6"/><text fill="currentColor" y="9" dy="0.71em">2015</text></g><g class="tick" opacity="1" transform="translate(90.45071193866374,0)"><line stroke="currentColor" y2="6"/><text fill="currentColor" y="9" dy="0.71em">2016</text></g><g class="tick" opacity="1" transform="translate(180.64786418400874,0)"><line stroke="currentColor" y2="6"/><text fill="currentColor" y="9" dy="0.71em">2017</text></g><g class="tick" opacity="1" transform="translate(270.5985761226725,0)"><line stroke="currentColor" y2="6"/><text fill="currentColor" y="9" dy="0.71em">2018</text></g><g class="tick" opacity="1" transform="translate(360.54928806133626,0)"><line stroke="currentColor" y2="6"/><text fill="currentColor" y="9" dy="0.71em">2019</text></g><g class="tick" opacity="1" transform="translate(450.5,0)"><line stroke="currentColor" y2="6"/><text fill="currentColor" y="9" dy="0.71em">2020</text></g><text x="450" dy="-5" text-anchor="end" style="font-family: Arial, sans-serif; font-size: 12px; fill: rgb(123, 123, 123); font-weight: bold;">Année</text></g><g transform="translate(0,0)" fill="none" font-size="10" font-family="sans-serif" text-anchor="end"><path class="domain" stroke="currentColor" d="M0.5,467.5V0.5"/><g class="tick" opacity="1" transform="translate(0,467.5)"><line stroke="currentColor" x2="-6"/><text fill="currentColor" x="-9" dy="0.32em">0</text></g><g class="tick" opacity="1" transform="translate(0,425.0454545454545)"><line stroke="currentColor" x2="-6"/><text fill="currentColor" x="-9" dy="0.32em">100</text></g><g class="tick" opacity="1" transform="translate(0,382.59090909090907)"><line stroke="currentColor" x2="-6"/><text fill="currentColor" x="-9" dy="0.32em">200</text></g><g class="tick" opacity="1" transform="translate(0,340.1363636363636)"><line stroke="currentColor" x2="-6"/><text fill="currentColor" x="-9" dy="0.32em">300</text></g><g class="tick" opacity="1" transform="translate(0,297.6818181818182)"><line stroke="currentColor" x2="-6"/><text fill="currentColor" x="-9" dy="0.32em">400</text></g><g class="tick" opacity="1" transform="translate(0,255.22727272727272)"><line stroke="currentColor" x2="-6"/><text fill="currentColor" x="-9" dy="0.32em">500</text></g><g class="tick" opacity="1" transform="translate(0,212.77272727272728)"><line stroke="currentColor" x2="-6"/><text fill="currentColor" x="-9" dy="0.32em">600</text></g><g class="tick" opacity="1" transform="translate(0,170.3181818181818)"><line stroke="currentColor" x2="-6"/><text fill="currentColor" x="-9" dy="0.32em">700</text></g><g class="tick" opacity="1" transform="translate(0,127.86363636363636)"><line stroke="currentColor" x2="-6"/><text fill="currentColor" x="-9" dy="0.32em">800</text></g><g class="tick" opacity="1" transform="translate(0,85.40909090909089)"><line stroke="currentColor" x2="-6"/><text fill="currentColor" x="-9" dy="0.32em">900</text></g><g class="tick" opacity="1" transform="translate(0,42.95454545454547)"><line stroke="currentColor" x2="-6"/><text fill="currentColor" x="-9" dy="0.32em">1,000</text></g><g class="tick" opacity="1" transform="translate(0,0.5)"><line stroke="currentColor" x2="-6"/><text fill="currentColor" x="-9" dy="0.32em">1,100</text></g><text x="4" text-anchor="start" dominant-baseline="hanging" style="font-family: Arial, sans-serif; font-size: 12px; fill: rgb(123, 123, 123); font-weight: bold;">Taux de chômage national</text></g></g><g id="viz"><g id="Ensemble Masters LMD (hors Masters enseignement)"><path d="M0,445.09345454545456L89.95071193866374,445.3481818181818L180.14786418400874,447.13127272727274L270.0985761226725,447.13127272727274L360.04928806133626,448.65963636363637L450,449.42381818181815" stroke="#4eaff5" fill="none"/><g><circle class="dot" cx="0" cy="445.09345454545456" r="1" fill="#4eaff5"/><circle class="dot" cx="89.95071193866374" cy="445.3481818181818" r="1" fill="#4eaff5"/><circle class="dot" cx="180.14786418400874" cy="447.13127272727274" r="1" fill="#4eaff5"/><circle class="dot" cx="270.0985761226725" cy="447.13127272727274" r="1" fill="#4eaff5"/><circle class="dot" cx="360.04928806133626" cy="448.65963636363637" r="1" fill="#4eaff5"/><circle class="dot" cx="450" cy="449.42381818181815" r="1" fill="#4eaff5"/></g><text font-family="sans-serif" font-size="10" class="labels" x="450" y="449.42381818181815" dx="5" dy="4" text-anchor="start">Ensemble Masters LMD (hors Masters enseignement)</text></g><g id="Droit, économie et gestion"><path d="M0,295.39872727272717L89.95071193866374,279.35090909090906L180.14786418400874,291.49290909090894L270.0985761226725,308.05018181818167L360.04928806133626,314.1636363636365L450,308.81436363636374" stroke="#4eaff5" fill="none"/><g><circle class="dot" cx="0" cy="295.39872727272717" r="1" fill="#4eaff5"/><circle class="dot" cx="89.95071193866374" cy="279.35090909090906" r="1" fill="#4eaff5"/><circle class="dot" cx="180.14786418400874" cy="291.49290909090894" r="1" fill="#4eaff5"/><circle class="dot" cx="270.0985761226725" cy="308.05018181818167" r="1" fill="#4eaff5"/><circle class="dot" cx="360.04928806133626" cy="314.1636363636365" r="1" fill="#4eaff5"/><circle class="dot" cx="450" cy="308.81436363636374" r="1" fill="#4eaff5"/></g><text font-family="sans-serif" font-size="10" class="labels" x="450" y="308.81436363636374" dx="5" dy="4" text-anchor="start">Droit, économie et gestion</text></g><g id="Lettres, langues, arts"><path d="M0,295.39872727272717L89.95071193866374,293.78545454545457L180.14786418400874,311.3616363636362L270.0985761226725,321.2959999999999L360.04928806133626,326.3905454545456L450,338.108" stroke="#4eaff5" fill="none"/><g><circle class="dot" cx="0" cy="295.39872727272717" r="1" fill="#4eaff5"/><circle class="dot" cx="89.95071193866374" cy="293.78545454545457" r="1" fill="#4eaff5"/><circle class="dot" cx="180.14786418400874" cy="311.3616363636362" r="1" fill="#4eaff5"/><circle class="dot" cx="270.0985761226725" cy="321.2959999999999" r="1" fill="#4eaff5"/><circle class="dot" cx="360.04928806133626" cy="326.3905454545456" r="1" fill="#4eaff5"/><circle class="dot" cx="450" cy="338.108" r="1" fill="#4eaff5"/></g><text font-family="sans-serif" font-size="10" class="labels" x="450" y="338.108" dx="5" dy="4" text-anchor="start">Lettres, langues, arts</text></g><g id="Sciences humaines et sociales"><path d="M0,236.98127272727248L89.95071193866374,243.2645454545455L180.14786418400874,268.3127272727271L270.0985761226725,241.8210909090907L360.04928806133626,246.91563636363662L450,250.22709090909117" stroke="#4eaff5" fill="none"/><g><circle class="dot" cx="0" cy="236.98127272727248" r="1" fill="#4eaff5"/><circle class="dot" cx="89.95071193866374" cy="243.2645454545455" r="1" fill="#4eaff5"/><circle class="dot" cx="180.14786418400874" cy="268.3127272727271" r="1" fill="#4eaff5"/><circle class="dot" cx="270.0985761226725" cy="241.8210909090907" r="1" fill="#4eaff5"/><circle class="dot" cx="360.04928806133626" cy="246.91563636363662" r="1" fill="#4eaff5"/><circle class="dot" cx="450" cy="250.22709090909117" r="1" fill="#4eaff5"/></g><text font-family="sans-serif" font-size="10" class="labels" x="450" y="250.22709090909117" dx="5" dy="4" text-anchor="start">Sciences humaines et sociales</text></g><g id="Sciences, technologies et santé"><path d="M0,36.17127272727194L89.95071193866374,33.963636363636375L180.14786418400874,82.87127272727349L270.0985761226725,76.2483636363644L360.04928806133626,115.47636363636303L450,133.0525454545461" stroke="#4eaff5" fill="none"/><g><circle class="dot" cx="0" cy="36.17127272727194" r="1" fill="#4eaff5"/><circle class="dot" cx="89.95071193866374" cy="33.963636363636375" r="1" fill="#4eaff5"/><circle class="dot" cx="180.14786418400874" cy="82.87127272727349" r="1" fill="#4eaff5"/><circle class="dot" cx="270.0985761226725" cy="76.2483636363644" r="1" fill="#4eaff5"/><circle class="dot" cx="360.04928806133626" cy="115.47636363636303" r="1" fill="#4eaff5"/><circle class="dot" cx="450" cy="133.0525454545461" r="1" fill="#4eaff5"/></g><text font-family="sans-serif" font-size="10" class="labels" x="450" y="133.0525454545461" dx="5" dy="4" text-anchor="start">Sciences, technologies et santé</text></g><g id="Masters enseignement"><path d="M0,445.09345454545456L89.95071193866374,445.3481818181818L180.14786418400874,447.13127272727274L270.0985761226725,447.13127272727274L360.04928806133626,448.65963636363637L450,449.42381818181815" stroke="#4eaff5" fill="none"/><g><circle class="dot" cx="0" cy="445.09345454545456" r="1" fill="#4eaff5"/><circle class="dot" cx="89.95071193866374" cy="445.3481818181818" r="1" fill="#4eaff5"/><circle class="dot" cx="180.14786418400874" cy="447.13127272727274" r="1" fill="#4eaff5"/><circle class="dot" cx="270.0985761226725" cy="447.13127272727274" r="1" fill="#4eaff5"/><circle class="dot" cx="360.04928806133626" cy="448.65963636363637" r="1" fill="#4eaff5"/><circle class="dot" cx="450" cy="449.42381818181815" r="1" fill="#4eaff5"/></g><text font-family="sans-serif" font-size="10" class="labels" x="450" y="449.42381818181815" dx="5" dy="4" text-anchor="start">Masters enseignement</text></g></g></g><text y="4" x="4" style="font-family: Arial, sans-serif; font-size: 12px; fill: black; font-weight: bold; dominant-baseline: hanging;"/></g><g id="grid"><rect x="0" y="0" width="700" height="500" fill="none" stroke="#ccc"/></g></g><g id="legend" transform="translate(700,13)"><g transform="translate(5,0)"/></g></svg>